<svg width="172.344666" height="35.394531" viewBox="0 0 172.345 35.3945" fill="none" xmlns="http://www.w3.org/2000/svg" xmlns:xlink="http://www.w3.org/1999/xlink">
	<desc>
			Created with Pixso.
	</desc>
	<defs/>
	<path id="ДЕТСКОЙ" d="M157.06 3.67Q158.61 4.93 161.67 4.93Q164.7 4.93 166.27 3.66Q166.73 3.29 167.06 2.82Q167.87 1.69 167.89 0L164.83 0Q164.8 0.9 164.37 1.5Q164.19 1.74 163.96 1.94Q163.13 2.62 161.67 2.62Q160.17 2.62 159.39 1.94Q159.23 1.8 159.1 1.63Q158.6 1 158.57 0L155.48 0Q155.51 1.82 156.4 2.99Q156.68 3.37 157.06 3.67ZM79.47 29.54Q82.02 30.67 85.06 30.67Q87.99 30.67 90.42 29.65Q92.01 28.98 93.27 27.92Q93.94 27.36 94.52 26.69L91.66 23.97Q90.3 25.45 88.62 26.15Q87.09 26.79 85.3 26.79Q83.14 26.79 81.37 25.95Q81.14 25.84 80.91 25.72Q79.88 25.15 79.09 24.34Q78.4 23.64 77.89 22.75Q77.73 22.46 77.59 22.16Q76.8 20.48 76.8 18.42Q76.8 16.38 77.58 14.71Q77.73 14.41 77.89 14.11Q78.41 13.2 79.13 12.48Q79.91 11.69 80.91 11.13Q81.14 11.01 81.37 10.9Q83.14 10.06 85.3 10.06Q87.13 10.06 88.68 10.72Q90.33 11.42 91.66 12.85L94.52 10.16Q93.9 9.44 93.17 8.85Q91.95 7.85 90.43 7.21Q88.02 6.19 85.1 6.19Q82.08 6.19 79.55 7.3Q79.06 7.51 78.59 7.77Q76.96 8.66 75.72 9.92Q74.75 10.91 74.01 12.14Q73.6 12.83 73.29 13.57Q72.35 15.8 72.35 18.42Q72.35 21.13 73.33 23.41Q73.62 24.08 74 24.71Q74.7 25.9 75.63 26.87Q76.89 28.18 78.56 29.09Q79.01 29.33 79.47 29.54ZM127.58 29.48Q130.19 30.67 133.34 30.67Q136.53 30.67 139.16 29.46Q139.54 29.29 139.91 29.09Q141.61 28.17 142.88 26.84Q143.8 25.88 144.5 24.71Q144.9 24.04 145.2 23.33Q146.17 21.08 146.17 18.42Q146.17 15.8 145.22 13.57Q144.91 12.83 144.5 12.14Q143.79 10.96 142.86 9.99Q141.59 8.68 139.91 7.77Q139.52 7.56 139.12 7.38Q136.5 6.19 133.34 6.19Q130.22 6.19 127.63 7.36Q127.2 7.55 126.78 7.77Q125.15 8.66 123.91 9.92Q122.93 10.92 122.19 12.16Q121.7 12.98 121.36 13.86Q120.53 15.98 120.53 18.42Q120.53 20.9 121.38 23.04Q121.72 23.9 122.19 24.7Q122.92 25.92 123.88 26.91Q125.13 28.19 126.78 29.09Q127.18 29.3 127.58 29.48ZM26.45 35.39L26.45 26.58L23.01 26.58L23.01 6.53L5.57 6.53L5.3 14.07Q5.1 20.06 4.2 23.27Q3.51 25.72 2.04 26.36Q1.58 26.56 1.05 26.58L0.03 26.58L0 35.39L4.11 35.39L4.11 30.33L22.37 30.33L22.37 35.39L26.45 35.39ZM48.44 30.33L48.44 26.62L35.02 26.62L35.02 20.06L46.51 20.06L46.51 16.42L35.02 16.42L35.02 10.23L47.97 10.23L47.97 6.53L30.59 6.53L30.59 30.33L48.44 30.33ZM62.76 10.26L70.65 10.26L70.65 6.53L50.52 6.53L50.52 10.26L58.38 10.26L58.38 30.33L62.76 30.33L62.76 10.26ZM102.99 20.3L107.4 20.3L114.38 30.33L119.37 30.33L110.94 18.05L119.07 6.53L114.38 6.53L107.54 16.49L102.99 16.49L102.99 6.53L98.63 6.53L98.63 30.33L102.99 30.33L102.99 20.3ZM155.45 6.53L151.1 6.53L151.1 30.33L155.21 30.33L167.99 13.46L167.99 30.33L172.34 30.33L172.34 6.53L168.23 6.53L155.45 23.43L155.45 6.53ZM136.97 26.05Q135.32 26.79 133.34 26.79Q131.42 26.79 129.8 26.09Q129.42 25.92 129.06 25.72Q128.18 25.22 127.47 24.54Q126.65 23.76 126.07 22.73Q125.83 22.31 125.65 21.87Q124.98 20.29 124.98 18.42Q124.98 16.57 125.64 15Q125.83 14.55 126.07 14.13Q126.67 13.08 127.5 12.28Q128.2 11.62 129.06 11.13Q129.42 10.93 129.8 10.77Q131.42 10.06 133.34 10.06Q135.32 10.06 136.97 10.81Q137.31 10.95 137.63 11.13Q138.51 11.63 139.22 12.31Q140.04 13.1 140.62 14.13Q140.86 14.55 141.05 15Q141.71 16.57 141.71 18.42Q141.71 20.29 141.04 21.87Q140.86 22.31 140.62 22.73Q140.05 23.74 139.25 24.51Q138.53 25.21 137.63 25.72Q137.31 25.9 136.97 26.05ZM8.43 22.18Q9.01 19.1 9.18 14.48L9.35 10.26L18.66 10.26L18.66 26.58L6.59 26.58Q7.86 25.26 8.43 22.18Z" fill="#FFFFFF" fill-opacity="1.000000" fill-rule="evenodd"/>
</svg>
