<svg width="157.212616" height="29.202148" viewBox="0 0 157.213 29.2021" fill="none" xmlns="http://www.w3.org/2000/svg" xmlns:xlink="http://www.w3.org/1999/xlink">
	<desc>
			Created with Pixso.
	</desc>
	<defs/>
	<path id="ОТДЫХА" d="M7.05 23.29Q9.66 24.47 12.81 24.47Q16 24.47 18.63 23.27Q19.01 23.09 19.38 22.9Q21.07 21.98 22.35 20.65Q23.27 19.69 23.97 18.52Q24.37 17.85 24.67 17.14Q25.64 14.89 25.64 12.23Q25.64 9.6 24.69 7.38Q24.38 6.64 23.97 5.95Q23.26 4.76 22.33 3.8Q21.06 2.49 19.38 1.58Q18.99 1.37 18.59 1.19Q15.97 0 12.81 0Q9.69 0 7.1 1.16Q6.67 1.36 6.25 1.58Q4.62 2.46 3.37 3.73Q2.4 4.73 1.66 5.96Q1.17 6.79 0.83 7.67Q0 9.79 0 12.23Q0 14.71 0.85 16.85Q1.19 17.7 1.66 18.51Q2.39 19.73 3.35 20.72Q4.6 22 6.25 22.9Q6.65 23.11 7.05 23.29ZM39.57 4.07L47.46 4.07L47.46 0.34L27.33 0.34L27.33 4.07L35.19 4.07L35.19 24.13L39.57 24.13L39.57 4.07ZM73.61 29.2L73.61 20.39L70.17 20.39L70.17 0.34L52.73 0.34L52.46 7.88Q52.26 13.87 51.35 17.08Q50.67 19.53 49.2 20.17Q48.74 20.37 48.21 20.39L47.19 20.39L47.15 29.2L51.27 29.2L51.27 24.13L69.53 24.13L69.53 29.2L73.61 29.2ZM95.32 10.31Q93.03 8.4 88.73 8.4L82.14 8.4L82.14 0.34L77.79 0.34L77.79 24.13L88.02 24.13Q92.58 24.13 95.09 22.04Q95.73 21.52 96.2 20.87Q97.61 18.96 97.61 16.01Q97.61 12.96 96.12 11.12Q95.76 10.68 95.32 10.31ZM105.4 0.34L101.05 0.34L101.05 24.13L105.4 24.13L105.4 0.34ZM120.46 8.29L114.85 0.34L109.75 0.34L117.81 11.93L109.2 24.13L114.31 24.13L120.46 15.47L126.64 24.13L135.96 24.13L138.31 18.62L150.21 18.62L152.58 24.13L157.21 24.13L146.47 0.34L142.12 0.34L131.59 23.72L123.25 11.76L131.23 0.34L126.07 0.34L120.46 8.29ZM16.44 19.86Q14.79 20.6 12.81 20.6Q10.89 20.6 9.27 19.9Q8.89 19.73 8.53 19.53Q7.65 19.03 6.94 18.35Q6.12 17.57 5.54 16.54Q5.3 16.12 5.12 15.68Q4.45 14.09 4.45 12.23Q4.45 10.38 5.11 8.81Q5.3 8.36 5.54 7.94Q6.13 6.89 6.97 6.09Q7.67 5.43 8.53 4.94Q8.89 4.74 9.27 4.57Q10.89 3.87 12.81 3.87Q14.79 3.87 16.44 4.61Q16.78 4.76 17.09 4.94Q17.98 5.44 18.69 6.12Q19.51 6.91 20.09 7.94Q20.33 8.36 20.52 8.81Q21.18 10.38 21.18 12.23Q21.18 14.09 20.51 15.68Q20.33 16.12 20.09 16.54Q19.52 17.54 18.73 18.32Q18 19.02 17.09 19.53Q16.78 19.71 16.44 19.86ZM55.59 15.99Q56.17 12.91 56.33 8.29L56.51 4.07L65.82 4.07L65.82 20.39L53.75 20.39Q55.01 19.07 55.59 15.99ZM144.26 4.75L148.74 15.16L139.8 15.16L144.26 4.75ZM91.8 19.54Q90.4 20.73 87.82 20.73L82.14 20.73L82.14 11.76L87.82 11.76Q91.08 11.76 92.36 13.35Q93.19 14.38 93.19 16.07Q93.19 17.89 92.31 19.01Q92.08 19.3 91.8 19.54Z" fill="#FFFFFF" fill-opacity="1.000000" fill-rule="evenodd"/>
</svg>
