<svg width="119.033203" height="24.304688" viewBox="0 0 119.033 24.3047" fill="none" xmlns="http://www.w3.org/2000/svg" xmlns:xlink="http://www.w3.org/1999/xlink">
	<desc>
			Created with Pixso.
	</desc>
	<defs/>
	<path id="КУХНИ" d="M4.35 13.77L8.77 13.77L15.74 23.79L20.74 23.79L12.31 11.52L20.43 0L15.74 0L8.91 9.96L4.35 9.96L4.35 0L-7.63e-6 0L-7.63e-6 23.79L4.35 23.79L4.35 13.77ZM34.14 19.2L44.47 0L40.12 0L32.87 13.97L25.83 0L21.11 0L30.6 17.74L30.23 18.32Q29.24 19.88 27.89 20.34Q27.32 20.53 26.69 20.53Q25.77 20.53 24.37 20.09L23.29 23.55Q24.84 24.22 26.42 24.29Q26.6 24.3 26.79 24.3Q27.71 24.3 28.57 24.08Q29.78 23.77 30.88 23.03Q32.77 21.75 34.14 19.2ZM55.55 7.95L49.94 0L44.85 0L52.91 11.59L44.3 23.79L49.4 23.79L55.55 15.13L61.74 23.79L66.98 23.79L58.34 11.42L66.33 0L61.17 0L55.55 7.95ZM91.08 23.79L91.08 0L86.66 0L86.66 9.82L74.36 9.82L74.36 0L69.93 0L69.93 23.79L74.36 23.79L74.36 13.59L86.66 13.59L86.66 23.79L91.08 23.79ZM102.14 0L97.79 0L97.79 23.79L101.9 23.79L114.68 6.93L114.68 23.79L119.03 23.79L119.03 0L114.92 0L102.14 16.9L102.14 0Z" fill="#FFFFFF" fill-opacity="1.000000" fill-rule="evenodd"/>
</svg>
