<svg width="157.377686" height="30.671387" viewBox="0 0 157.378 30.6714" fill="none" xmlns="http://www.w3.org/2000/svg" xmlns:xlink="http://www.w3.org/1999/xlink">
	<desc>
			Created with Pixso.
	</desc>
	<defs/>
	<path id="ВАННОЙ" d="M142.09 3.67Q143.64 4.93 146.7 4.93Q149.73 4.93 151.31 3.66Q151.76 3.29 152.09 2.82Q152.9 1.69 152.92 0L149.86 0Q149.84 0.9 149.4 1.5Q149.23 1.74 148.99 1.94Q148.16 2.62 146.7 2.62Q145.2 2.62 144.42 1.94Q144.26 1.8 144.14 1.63Q143.64 1 143.6 0L140.51 0Q140.54 1.82 141.43 2.99Q141.72 3.37 142.09 3.67ZM112.61 29.48Q115.23 30.67 118.38 30.67Q121.56 30.67 124.2 29.46Q124.57 29.29 124.94 29.09Q126.64 28.17 127.91 26.84Q128.83 25.88 129.53 24.71Q129.93 24.04 130.24 23.33Q131.2 21.08 131.2 18.42Q131.2 15.8 130.26 13.57Q129.95 12.83 129.53 12.14Q128.82 10.96 127.89 9.99Q126.62 8.68 124.94 7.77Q124.55 7.56 124.15 7.38Q121.53 6.19 118.38 6.19Q115.25 6.19 112.66 7.36Q112.23 7.55 111.82 7.77Q110.18 8.66 108.94 9.92Q107.96 10.92 107.23 12.16Q106.74 12.98 106.39 13.86Q105.56 15.98 105.56 18.42Q105.56 20.9 106.41 23.04Q106.75 23.9 107.23 24.7Q107.95 25.92 108.92 26.91Q110.17 28.19 111.82 29.09Q112.21 29.3 112.61 29.48ZM19.1 20.04Q17.91 18.56 15.63 17.95Q17.05 17.35 17.92 16.3Q18.09 16.09 18.23 15.87Q18.34 15.71 18.44 15.54Q19.14 14.29 19.14 12.65Q19.14 10.98 18.41 9.75Q17.86 8.82 16.89 8.13Q14.65 6.53 10.64 6.53L-1.53e-5 6.53L-1.53e-5 30.33L11.28 30.33Q15.67 30.33 17.97 28.59Q18.91 27.89 19.46 26.97Q20.29 25.6 20.29 23.73Q20.29 21.91 19.48 20.59Q19.31 20.3 19.1 20.04ZM26.84 30.33L29.19 24.81L41.1 24.81L43.47 30.33L48.09 30.33L37.35 6.53L33 6.53L22.3 30.33L26.84 30.33ZM72.89 30.33L72.89 6.53L68.46 6.53L68.46 16.36L56.16 16.36L56.16 6.53L51.74 6.53L51.74 30.33L56.16 30.33L56.16 20.12L68.46 20.12L68.46 30.33L72.89 30.33ZM100.7 30.33L100.7 6.53L96.27 6.53L96.27 16.36L83.97 16.36L83.97 6.53L79.55 6.53L79.55 30.33L83.97 30.33L83.97 20.12L96.27 20.12L96.27 30.33L100.7 30.33ZM140.48 6.53L136.13 6.53L136.13 30.33L140.24 30.33L153.02 13.46L153.02 30.33L157.37 30.33L157.37 6.53L153.26 6.53L140.48 23.43L140.48 6.53ZM10.25 16.7L4.34 16.7L4.34 9.92L10.25 9.92Q12.4 9.92 13.53 10.79Q13.86 11.05 14.09 11.37Q14.65 12.15 14.65 13.33Q14.65 14.51 14.08 15.28Q13.85 15.6 13.53 15.85Q12.4 16.7 10.25 16.7ZM122.01 26.05Q120.36 26.79 118.38 26.79Q116.45 26.79 114.83 26.09Q114.46 25.92 114.09 25.72Q113.21 25.22 112.5 24.54Q111.69 23.76 111.1 22.73Q110.87 22.31 110.68 21.87Q110.02 20.29 110.02 18.42Q110.02 16.57 110.68 15Q110.86 14.55 111.1 14.13Q111.7 13.08 112.54 12.28Q113.23 11.62 114.09 11.13Q114.46 10.93 114.83 10.77Q116.45 10.06 118.38 10.06Q120.36 10.06 122.01 10.81Q122.34 10.95 122.66 11.13Q123.55 11.63 124.26 12.31Q125.07 13.1 125.65 14.13Q125.89 14.55 126.08 15Q126.74 16.57 126.74 18.42Q126.74 20.29 126.08 21.87Q125.89 22.31 125.65 22.73Q125.08 23.74 124.29 24.51Q123.57 25.21 122.66 25.72Q122.34 25.9 122.01 26.05ZM35.15 10.94L39.63 21.35L30.69 21.35L35.15 10.94ZM15.22 25.49Q14.13 26.92 11.14 26.92L4.34 26.92L4.34 19.93L11.14 19.93Q14.18 19.93 15.25 21.38Q15.83 22.17 15.83 23.39Q15.83 24.67 15.22 25.49Z" fill="#FFFFFF" fill-opacity="1.000000" fill-rule="evenodd"/>
</svg>
