<svg width="151.443893" height="24.479004" viewBox="0 0 151.444 24.479" fill="none" xmlns="http://www.w3.org/2000/svg" xmlns:xlink="http://www.w3.org/1999/xlink">
	<desc>
			Created with Pixso.
	</desc>
	<defs/>
	<path id="РАБОТЫ" d="M79.57 23.29Q82.19 24.47 85.33 24.47Q88.52 24.47 91.16 23.27Q91.53 23.09 91.9 22.9Q93.6 21.98 94.87 20.65Q95.79 19.69 96.49 18.52Q96.89 17.85 97.2 17.14Q98.16 14.89 98.16 12.23Q98.16 9.6 97.22 7.38Q96.91 6.64 96.49 5.95Q95.78 4.76 94.85 3.8Q93.58 2.49 91.9 1.58Q91.51 1.37 91.11 1.19Q88.49 0 85.33 0Q82.21 0 79.62 1.16Q79.19 1.36 78.78 1.58Q77.14 2.46 75.9 3.73Q74.92 4.73 74.19 5.96Q73.7 6.79 73.35 7.67Q72.52 9.79 72.52 12.23Q72.52 14.71 73.37 16.85Q73.71 17.7 74.19 18.51Q74.91 19.73 75.88 20.72Q77.13 22 78.78 22.9Q79.17 23.11 79.57 23.29ZM15.17 1.36Q12.88 0.34 9.79 0.34L0 0.34L0 24.13L4.42 24.13L4.42 17.27L9.79 17.27Q12.88 17.27 15.17 16.25Q17 15.44 18.14 14.06Q18.44 13.7 18.69 13.31Q18.84 13.06 18.98 12.81Q19.92 11.06 19.92 8.8Q19.92 6.36 18.85 4.54Q18.77 4.41 18.69 4.28Q18.46 3.93 18.2 3.61Q17.05 2.19 15.17 1.36ZM24.44 24.13L26.79 18.62L38.69 18.62L41.06 24.13L45.69 24.13L34.95 0.34L30.6 0.34L19.89 24.13L24.44 24.13ZM67.9 0.34L49.37 0.34L49.37 24.13L60.08 24.13Q64.6 24.13 67.04 22.22Q67.87 21.57 68.42 20.74Q69.49 19.1 69.49 16.75Q69.49 14.36 68.36 12.76Q67.91 12.12 67.27 11.61Q65.04 9.82 60.76 9.82L53.72 9.82L53.72 3.97L67.9 3.97L67.9 0.34ZM112.1 4.07L119.98 4.07L119.98 0.34L99.85 0.34L99.85 4.07L107.71 4.07L107.71 24.13L112.1 24.13L112.1 4.07ZM141.35 10.31Q139.06 8.4 134.77 8.4L128.18 8.4L128.18 0.34L123.83 0.34L123.83 24.13L134.06 24.13Q138.61 24.13 141.13 22.04Q141.76 21.52 142.24 20.87Q143.64 18.96 143.64 16.01Q143.64 12.96 142.15 11.12Q141.8 10.68 141.35 10.31ZM151.44 0.34L147.09 0.34L147.09 24.13L151.44 24.13L151.44 0.34ZM88.97 19.86Q87.32 20.6 85.33 20.6Q83.41 20.6 81.79 19.9Q81.41 19.73 81.05 19.53Q80.17 19.03 79.46 18.35Q78.65 17.57 78.06 16.54Q77.83 16.12 77.64 15.68Q76.98 14.09 76.98 12.23Q76.98 10.38 77.64 8.81Q77.82 8.36 78.06 7.94Q78.66 6.89 79.5 6.09Q80.19 5.43 81.05 4.94Q81.41 4.74 81.79 4.57Q83.41 3.87 85.33 3.87Q87.32 3.87 88.97 4.61Q89.3 4.76 89.62 4.94Q90.5 5.44 91.21 6.12Q92.03 6.91 92.61 7.94Q92.85 8.36 93.04 8.81Q93.7 10.38 93.7 12.23Q93.7 14.09 93.04 15.68Q92.85 16.12 92.61 16.54Q92.04 17.54 91.25 18.32Q90.53 19.02 89.62 19.53Q89.3 19.71 88.97 19.86ZM13.97 12.31Q12.47 13.53 9.58 13.53L4.42 13.53L4.42 4.07L9.58 4.07Q12.47 4.07 13.97 5.3Q14.39 5.65 14.7 6.08Q15.47 7.17 15.47 8.8Q15.47 10.42 14.71 11.5Q14.4 11.95 13.97 12.31ZM32.74 4.75L37.22 15.16L28.28 15.16L32.74 4.75ZM137.83 19.54Q136.44 20.73 133.86 20.73L128.18 20.73L128.18 11.76L133.86 11.76Q137.12 11.76 138.4 13.35Q139.23 14.38 139.23 16.07Q139.23 17.89 138.35 19.01Q138.12 19.3 137.83 19.54ZM63.71 19.75Q62.39 20.73 59.84 20.73L53.72 20.73L53.72 13.22L59.84 13.22Q63.31 13.22 64.47 14.85Q65.04 15.67 65.04 16.9Q65.04 18.1 64.49 18.95Q64.18 19.4 63.71 19.75Z" fill="#FFFFFF" fill-opacity="1.000000" fill-rule="evenodd"/>
</svg>
